<?xml version="1.0" encoding="UTF-8"?>
<svg id="Layer_3" xmlns="http://www.w3.org/2000/svg" version="1.1" viewBox="0 0 800 800">
  <!-- Generator: Adobe Illustrator 30.2.1, SVG Export Plug-In . SVG Version: 2.1.1 Build 1)  -->
  <path d="M269.24,290.73s8.69,2.66,17.3,8.13c-3.14,1.36-6.1,3.19-9.01,5.11-11.73,7.74-23.59,16.26-30.55,28.47-5.99,10.51-7.82,23.31-5.01,35.08,6.5,27.17,33.61,37.71,61.31,39.09v66.97c0,4.57-1.49,8.63-3.82,12.21-17.06-3.73-42.75-7.83-54.1-1.85-17.76,9.36-5.54,21.2-5.54,21.2,0,0,13.58,11.66,49.25,2.81h131.99c58.55,0,106.01-47.46,106.01-106.01v-7.22c0-31.11-13.4-59.09-34.74-78.48,38.61-32.15,71.95-12.89,71.95-12.89-12.03-8.66-25.9-14.47-40.46-14.63-17.67-.19-33.04,5.98-46.58,16.09-16.29-10.2-35.54-16.1-56.17-16.1h-151.82v2.01ZM286.48,386.96c-26.24-5.62-38.07-34.82-19.11-55.31,8.82-9.52,20.99-14.83,32.82-19.6,1.91,3.29,3.09,6.96,3.09,11.04v66.09c-5.64-.32-11.26-1.04-16.8-2.22ZM383.55,343.87c3.15,1.42,5.99,3.91,6.99,7.22,2.73,9.01-8.79,17.96-15.38,21.84-7.03,4.14-14.84,6.7-22.59,9.16v-41.24c10.23-1.09,21.82-1.09,30.97,3.02ZM252.18,500.31c.57-3.46,8.95-2.88,11.2-2.87,6.96.03,13.9.85,20.8,1.71-5.31,3.53-11.7,4.91-17.99,5.19-2.67.12-14.84,1.06-14.01-4.03ZM473.95,408.9c0,48.26-39.12,87.37-87.37,87.37h-20.42c37.68-22.1,58.24-72.31,86.04-126.55,3.67-7.09,7.37-13.49,11.09-19.31,6.81,12.95,10.67,27.69,10.67,43.34v15.15ZM380.72,300.52c27.8,0,52.76,12.18,69.84,31.48-21.94,28.63-38.12,65.75-52.14,92.85-11.51,22.25-25.49,39.54-45.85,50.16v-75.2c16.29-5.61,34.22-14.89,43.66-29.27,4.42-6.74,7.61-16.37,5.15-24.31-5.42-17.49-31.53-18.1-46.11-15.6-.87.15-1.78.39-2.71.69v-30.8h28.14Z"/>
</svg>